<svg version="1.1" xmlns="http://www.w3.org/2000/svg" xmlns:xlink="http://www.w3.org/1999/xlink" role="img" width="300" height="90" viewbox="0 0 300 90"><title>FrameDiff</title><desc>Generated by logo.svg, https://github.com/bubkoo/logo.svg</desc><path fill="#2b68a7" d="M-0.34 70.35L0.17 67.66L1 67.66Q3.11 67.66 4.81 66.93Q6.50 66.19 7.21 63.38L13.93 31.70Q14.18 30.67 14.18 29.90Q14.18 28.24 12.90 27.79Q11.62 27.34 9.58 27.34L8.74 27.34L9.32 24.66L41.58 24.66L39.53 35.86L36.20 35.86Q36.33 34.77 36.42 33.58Q36.52 32.40 36.52 32.14Q36.52 30.29 35.46 29.07Q34.41 27.86 31.72 27.86L21.22 27.86L17.26 46.35L32.68 46.35L32.04 49.49L16.62 49.49L13.74 63.06Q13.54 63.95 13.54 64.66Q13.54 66.64 14.82 67.15Q16.10 67.66 17.96 67.66L20.07 67.66L19.56 70.35L-0.34 70.35ZM41.58 70.35L46.95 44.62Q47.14 43.73 47.24 42.90Q47.34 42.06 47.34 41.74Q47.34 39.82 45.67 39.28Q44.01 38.74 42.22 38.74L41.70 38.74L42.28 36.05L53.61 36.05L52.26 45.26L52.90 45.26Q54.12 42.64 55.53 40.40Q56.94 38.16 58.92 36.78Q60.90 35.41 63.78 35.41Q66.47 35.41 67.75 36.66Q69.03 37.90 69.03 39.82Q69.03 42.06 67.78 43.38Q66.54 44.69 63.72 44.69Q63.72 42.38 63.21 41.01Q62.70 39.63 61.16 39.63Q59.50 39.63 57.80 41.36Q56.10 43.09 54.60 45.94Q53.10 48.78 51.88 52.14Q50.66 55.50 49.96 58.70L47.53 70.35L41.58 70.35ZM78.44 70.99Q75.62 70.99 73.77 69.46Q71.91 67.92 71.05 65.26Q70.18 62.61 70.18 59.28Q70.18 56.27 70.98 52.98Q71.78 49.68 73.38 46.58Q74.98 43.47 77.29 40.94Q79.59 38.42 82.60 36.91Q85.61 35.41 89.26 35.41Q91.56 35.41 93.51 36.05Q95.46 36.69 96.74 37.71L99.56 36.11L101.61 36.11L97.26 56.59Q97.13 57.30 96.87 58.64Q96.62 59.98 96.46 61.39Q96.30 62.80 96.30 63.70Q96.30 66.96 98.41 66.96Q99.43 66.96 100.62 66.48Q101.80 66 103.02 65.30L104.17 67.15Q103.27 67.98 101.74 68.88Q100.20 69.78 98.47 70.38Q96.74 70.99 95.14 70.99Q92.84 70.99 91.50 69.58Q90.15 68.18 90.15 65.68Q90.15 64.40 90.31 63.34Q90.47 62.29 90.79 60.69L90.41 60.69Q88.17 65.62 85.19 68.30Q82.22 70.99 78.44 70.99M80.74 66.96Q82.41 66.96 84.17 65.68Q85.93 64.40 87.50 62.22Q89.06 60.05 90.28 57.36Q91.50 54.67 92.07 51.92L94.44 40.59Q93.74 39.44 92.39 38.86Q91.05 38.29 89.58 38.29Q87.02 38.29 84.97 39.73Q82.92 41.17 81.38 43.54Q79.85 45.90 78.79 48.72Q77.74 51.54 77.22 54.38Q76.71 57.23 76.71 59.54Q76.71 63.50 77.86 65.23Q79.02 66.96 80.74 66.96ZM152.94 70.99Q150.12 70.99 148.62 69.20Q147.11 67.41 147.11 64.59Q147.11 61.65 148.33 55.95L149.42 50.96Q149.61 50.13 149.93 48.75Q150.25 47.38 150.50 45.94Q150.76 44.50 150.76 43.34Q150.76 42.06 150.22 40.82Q149.67 39.57 147.82 39.57Q145.96 39.57 144.14 40.82Q142.31 42.06 140.71 44.05Q139.11 46.03 137.93 48.30Q136.74 50.58 136.10 52.56L135.08 57.17Q134.89 58.06 134.57 59.92Q134.25 61.78 133.96 63.92Q133.67 66.06 133.45 67.86Q133.22 69.65 133.22 70.35L127.14 70.35Q127.14 69.58 127.37 67.82Q127.59 66.06 127.91 63.86Q128.23 61.65 128.62 59.54Q129 57.42 129.32 55.95L130.41 50.96Q130.60 50.13 130.92 48.75Q131.24 47.38 131.50 45.94Q131.75 44.50 131.75 43.34Q131.75 42.06 131.21 40.82Q130.66 39.57 128.81 39.57Q126.76 39.57 124.81 41.04Q122.86 42.51 121.16 44.82Q119.46 47.12 118.28 49.58Q117.10 52.05 116.71 53.97L113.26 70.35L107.30 70.35L112.68 44.62Q112.87 43.73 112.97 42.90Q113.06 42.06 113.06 41.74Q113.06 39.82 111.72 39.28Q110.38 38.74 108.58 38.74L108.07 38.74L108.65 36.05L120.49 36.05L118.76 44.11L119.40 44.11Q122.02 39.89 124.74 37.68Q127.46 35.47 131.05 35.47Q134.82 35.47 136.36 37.62Q137.90 39.76 137.90 42.58Q137.90 42.96 137.86 43.34Q137.83 43.73 137.77 44.11L138.41 44.11Q140.97 39.89 143.72 37.68Q146.47 35.47 150.06 35.47Q153.83 35.47 155.37 37.62Q156.90 39.76 156.90 42.58Q156.90 44.18 156.49 46.06Q156.07 47.95 155.75 49.62L154.09 57.17Q153.70 58.96 153.48 60.69Q153.26 62.42 153.26 63.89Q153.26 66.96 155.50 66.96Q157.35 66.96 159.59 65.49L160.74 67.34Q159.21 68.62 157.32 69.81Q155.43 70.99 152.94 70.99ZM177.06 70.99Q173.61 70.99 170.79 69.52Q167.98 68.05 166.28 65.14Q164.58 62.22 164.58 57.74Q164.58 54.22 165.80 50.32Q167.02 46.42 169.45 43.02Q171.88 39.63 175.43 37.52Q178.98 35.41 183.66 35.41Q187.69 35.41 189.93 37.36Q192.17 39.31 192.17 42.77Q192.17 46.16 189.77 49.07Q187.37 51.98 183.18 53.78Q178.98 55.57 173.61 55.57L171.37 55.57Q171.30 56.27 171.27 56.94Q171.24 57.62 171.24 58.26Q171.24 62.42 173.03 64.69Q174.82 66.96 178.28 66.96Q181.35 66.96 183.75 65.49Q186.15 64.02 187.50 62.35Q188.14 62.80 188.14 63.95Q188.14 65.36 186.95 66.99Q185.77 68.62 183.34 69.81Q180.90 70.99 177.06 70.99M171.94 52.62L172.58 52.62Q176.30 52.62 179.24 51.38Q182.18 50.13 183.88 47.92Q185.58 45.71 185.58 42.77Q185.58 38.48 181.86 38.48Q180.01 38.48 178.44 39.73Q176.87 40.98 175.59 43.06Q174.31 45.14 173.38 47.63Q172.46 50.13 171.94 52.62ZM192.04 70.35L192.55 67.66L193.38 67.66Q195.56 67.66 197.29 66.86Q199.02 66.06 199.66 63.06L206.31 31.70Q206.44 31.25 206.50 30.77Q206.57 30.29 206.57 29.90Q206.57 28.18 205.13 27.76Q203.69 27.34 201.96 27.34L201.13 27.34L201.70 24.66L219.62 24.66Q228.26 24.66 233.03 29.10Q237.80 33.55 237.80 42.06Q237.80 47.76 236.14 52.88Q234.47 58 231.21 61.94Q227.94 65.87 223.18 68.11Q218.41 70.35 212.20 70.35L192.04 70.35M205.22 67.09L210.79 67.09Q217.06 67.09 221.58 63.79Q226.09 60.50 228.46 54.70Q230.82 48.91 230.82 41.36Q230.82 34.38 227.53 31.12Q224.23 27.86 218.66 27.86L213.61 27.86L205.22 67.09ZM254.12 29.65Q252.52 29.65 251.53 28.78Q250.54 27.92 250.54 26.13Q250.54 24.14 251.59 22.90Q252.65 21.65 254.38 21.65Q255.91 21.65 256.94 22.51Q257.96 23.38 257.96 25.17Q257.96 27.66 256.74 28.66Q255.53 29.65 254.12 29.65M249.70 70.99Q247.14 70.99 245.77 69.20Q244.39 67.41 244.39 64.91Q244.39 63.57 244.65 61.71Q244.90 59.86 245.22 58Q245.54 56.14 245.80 54.86L248.30 43.09Q248.49 42.13 248.49 41.42Q248.49 39.70 247.43 39.22Q246.38 38.74 244.58 38.74L243.75 38.74L244.33 36.05L255.78 36.05L251.43 56.59Q251.30 57.30 251.05 58.64Q250.79 59.98 250.63 61.39Q250.47 62.80 250.47 63.70Q250.47 66.96 252.58 66.96Q253.61 66.96 254.79 66.48Q255.98 66 257.19 65.30L258.34 67.15Q256.94 68.43 254.50 69.71Q252.07 70.99 249.70 70.99ZM253.99 85.71Q253.03 85.71 251.98 85.55Q250.92 85.39 250.28 85.20L250.86 82.26Q251.37 82.38 252.23 82.54Q253.10 82.70 253.80 82.70Q256.94 82.70 258.70 80.02Q260.46 77.33 261.86 70.93L268.58 39.70L262.76 39.70L263.14 37.39L269.29 36.05L269.61 34.58Q271.02 28.11 274.09 24.91Q277.16 21.71 282.28 21.71Q286.38 21.71 287.98 22.86Q289.58 24.02 289.58 25.49Q289.58 27.15 288.46 28.14Q287.34 29.14 285.10 29.14Q285.10 28.24 284.84 27.18Q284.58 26.13 283.85 25.39Q283.11 24.66 281.77 24.66Q279.40 24.66 278.15 26.80Q276.90 28.94 275.75 33.94L275.30 36.05L288.30 36.05L288.30 36.05L288.36 36.05L288.81 33.81Q289.58 30.16 291.14 27.28Q292.71 24.40 295.21 22.74Q297.70 21.07 301.22 21.07Q305.32 21.07 307.40 22.38Q309.48 23.70 309.48 25.81Q309.48 27.92 308.10 28.94Q306.73 29.97 304.17 29.97Q304.17 27.54 303.53 25.78Q302.89 24.02 300.90 24.02Q298.54 24.02 297.16 26.61Q295.78 29.20 294.95 33.23L294.38 36.05L301.48 36.05L300.78 39.70L293.61 39.70L286.95 70.86Q285.74 76.56 283.82 79.79Q281.90 83.02 279.21 84.37Q276.52 85.71 273.06 85.71Q272.10 85.71 271.05 85.55Q269.99 85.39 269.35 85.20L269.93 82.26Q270.44 82.38 271.30 82.54Q272.17 82.70 272.87 82.70Q276.01 82.70 277.77 80.02Q279.53 77.33 280.94 70.93L287.66 39.70L274.54 39.70L267.88 70.86Q266.66 76.56 264.74 79.79Q262.82 83.02 260.14 84.37Q257.45 85.71 253.99 85.71Z"></path></svg>