<svg version="1.1" xmlns="http://www.w3.org/2000/svg" xmlns:xlink="http://www.w3.org/1999/xlink" role="img" width="430" height="90" viewbox="0 0 430 90"><title>InterframeDiff</title><desc>Generated by logo.svg, https://github.com/bubkoo/logo.svg</desc><path fill="#2b68a7" d="M-0.34 70.35L0.17 67.66L1 67.66Q3.18 67.66 4.90 66.86Q6.63 66.06 7.27 63.06L13.93 31.70Q14.18 30.67 14.18 29.90Q14.18 28.24 12.90 27.79Q11.62 27.34 9.58 27.34L8.74 27.34L9.32 24.66L27.94 24.66L27.37 27.34L26.54 27.34Q24.36 27.34 22.66 28.14Q20.97 28.94 20.33 31.95L13.67 63.31Q13.42 64.34 13.42 65.10Q13.42 66.77 14.70 67.22Q15.98 67.66 18.02 67.66L18.86 67.66L18.28 70.35L-0.34 70.35ZM53.93 70.99Q51.11 70.99 49.61 69.20Q48.10 67.41 48.10 64.59Q48.10 61.65 49.32 55.95L50.41 50.96Q50.60 50.13 50.92 48.75Q51.24 47.38 51.50 45.94Q51.75 44.50 51.75 43.34Q51.75 42.06 51.21 40.82Q50.66 39.57 48.81 39.57Q46.76 39.57 44.81 41.04Q42.86 42.51 41.16 44.82Q39.46 47.12 38.28 49.58Q37.10 52.05 36.71 53.97L33.26 70.35L27.30 70.35L32.68 44.62Q32.87 43.73 32.97 42.90Q33.06 42.06 33.06 41.74Q33.06 39.82 31.72 39.28Q30.38 38.74 28.58 38.74L28.07 38.74L28.65 36.05L40.49 36.05L38.76 44.11L39.40 44.11Q42.02 39.89 44.74 37.68Q47.46 35.47 51.05 35.47Q54.82 35.47 56.36 37.62Q57.90 39.76 57.90 42.58Q57.90 44.18 57.48 46.06Q57.06 47.95 56.74 49.62L55.08 57.17Q54.70 58.96 54.47 60.69Q54.25 62.42 54.25 63.89Q54.25 66.96 56.49 66.96Q58.34 66.96 60.58 65.49L61.74 67.34Q60.20 68.62 58.31 69.81Q56.42 70.99 53.93 70.99ZM74.54 70.99Q67.56 70.99 67.56 63.50Q67.56 62.35 67.75 60.85Q67.94 59.34 68.20 58.13L72.10 39.70L67.24 39.70L67.82 37.14Q70.57 37.14 73.13 35.12Q75.69 33.10 77.61 28.18L80.55 28.18L78.89 36.05L86.63 36.05L85.86 39.70L78.12 39.70L74.22 57.94Q73.90 59.54 73.67 60.98Q73.45 62.42 73.45 63.44Q73.45 65.30 74.34 66.13Q75.24 66.96 76.84 66.96Q78.18 66.96 79.59 66.54Q81 66.13 82.09 65.55L83.18 67.92Q81.26 69.26 79.08 70.13Q76.90 70.99 74.54 70.99ZM101.61 70.99Q98.15 70.99 95.34 69.52Q92.52 68.05 90.82 65.14Q89.13 62.22 89.13 57.74Q89.13 54.22 90.34 50.32Q91.56 46.42 93.99 43.02Q96.42 39.63 99.98 37.52Q103.53 35.41 108.20 35.41Q112.23 35.41 114.47 37.36Q116.71 39.31 116.71 42.77Q116.71 46.16 114.31 49.07Q111.91 51.98 107.72 53.78Q103.53 55.57 98.15 55.57L95.91 55.57Q95.85 56.27 95.82 56.94Q95.78 57.62 95.78 58.26Q95.78 62.42 97.58 64.69Q99.37 66.96 102.82 66.96Q105.90 66.96 108.30 65.49Q110.70 64.02 112.04 62.35Q112.68 62.80 112.68 63.95Q112.68 65.36 111.50 66.99Q110.31 68.62 107.88 69.81Q105.45 70.99 101.61 70.99M96.49 52.62L97.13 52.62Q100.84 52.62 103.78 51.38Q106.73 50.13 108.42 47.92Q110.12 45.71 110.12 42.77Q110.12 38.48 106.41 38.48Q104.55 38.48 102.98 39.73Q101.42 40.98 100.14 43.06Q98.86 45.14 97.93 47.63Q97 50.13 96.49 52.62ZM120.74 70.35L126.12 44.62Q126.31 43.73 126.41 42.90Q126.50 42.06 126.50 41.74Q126.50 39.82 124.84 39.28Q123.18 38.74 121.38 38.74L120.87 38.74L121.45 36.05L132.78 36.05L131.43 45.26L132.07 45.26Q133.29 42.64 134.70 40.40Q136.10 38.16 138.09 36.78Q140.07 35.41 142.95 35.41Q145.64 35.41 146.92 36.66Q148.20 37.90 148.20 39.82Q148.20 42.06 146.95 43.38Q145.70 44.69 142.89 44.69Q142.89 42.38 142.38 41.01Q141.86 39.63 140.33 39.63Q138.66 39.63 136.97 41.36Q135.27 43.09 133.77 45.94Q132.26 48.78 131.05 52.14Q129.83 55.50 129.13 58.70L126.70 70.35L120.74 70.35ZM142.63 85.71Q141.67 85.71 140.62 85.55Q139.56 85.39 138.92 85.20L139.50 82.26Q140.01 82.38 140.87 82.54Q141.74 82.70 142.44 82.70Q145.58 82.70 147.34 80.02Q149.10 77.33 150.50 70.93L157.22 39.70L151.40 39.70L151.78 37.39L157.93 36.05L158.63 32.53Q159.66 27.09 162.60 24.08Q165.54 21.07 170.79 21.07Q174.89 21.07 176.97 22.38Q179.05 23.70 179.05 25.81Q179.05 27.92 177.67 28.94Q176.30 29.97 173.74 29.97Q173.74 27.54 173.10 25.78Q172.46 24.02 170.47 24.02Q168.10 24.02 166.82 25.97Q165.54 27.92 164.78 31.95L163.94 36.05L171.05 36.05L170.34 39.70L163.18 39.70L156.52 70.86Q155.30 76.56 153.38 79.79Q151.46 83.02 148.78 84.37Q146.09 85.71 142.63 85.71ZM171.05 70.35L176.42 44.62Q176.62 43.73 176.71 42.90Q176.81 42.06 176.81 41.74Q176.81 39.82 175.14 39.28Q173.48 38.74 171.69 38.74L171.18 38.74L171.75 36.05L183.08 36.05L181.74 45.26L182.38 45.26Q183.59 42.64 185 40.40Q186.41 38.16 188.39 36.78Q190.38 35.41 193.26 35.41Q195.94 35.41 197.22 36.66Q198.50 37.90 198.50 39.82Q198.50 42.06 197.26 43.38Q196.01 44.69 193.19 44.69Q193.19 42.38 192.68 41.01Q192.17 39.63 190.63 39.63Q188.97 39.63 187.27 41.36Q185.58 43.09 184.07 45.94Q182.57 48.78 181.35 52.14Q180.14 55.50 179.43 58.70L177 70.35L171.05 70.35ZM207.91 70.99Q205.10 70.99 203.24 69.46Q201.38 67.92 200.52 65.26Q199.66 62.61 199.66 59.28Q199.66 56.27 200.46 52.98Q201.26 49.68 202.86 46.58Q204.46 43.47 206.76 40.94Q209.06 38.42 212.07 36.91Q215.08 35.41 218.73 35.41Q221.03 35.41 222.98 36.05Q224.94 36.69 226.22 37.71L229.03 36.11L231.08 36.11L226.73 56.59Q226.60 57.30 226.34 58.64Q226.09 59.98 225.93 61.39Q225.77 62.80 225.77 63.70Q225.77 66.96 227.88 66.96Q228.90 66.96 230.09 66.48Q231.27 66 232.49 65.30L233.64 67.15Q232.74 67.98 231.21 68.88Q229.67 69.78 227.94 70.38Q226.22 70.99 224.62 70.99Q222.31 70.99 220.97 69.58Q219.62 68.18 219.62 65.68Q219.62 64.40 219.78 63.34Q219.94 62.29 220.26 60.69L219.88 60.69Q217.64 65.62 214.66 68.30Q211.69 70.99 207.91 70.99M210.22 66.96Q211.88 66.96 213.64 65.68Q215.40 64.40 216.97 62.22Q218.54 60.05 219.75 57.36Q220.97 54.67 221.54 51.92L223.91 40.59Q223.21 39.44 221.86 38.86Q220.52 38.29 219.05 38.29Q216.49 38.29 214.44 39.73Q212.39 41.17 210.86 43.54Q209.32 45.90 208.26 48.72Q207.21 51.54 206.70 54.38Q206.18 57.23 206.18 59.54Q206.18 63.50 207.34 65.23Q208.49 66.96 210.22 66.96ZM282.41 70.99Q279.59 70.99 278.09 69.20Q276.58 67.41 276.58 64.59Q276.58 61.65 277.80 55.95L278.89 50.96Q279.08 50.13 279.40 48.75Q279.72 47.38 279.98 45.94Q280.23 44.50 280.23 43.34Q280.23 42.06 279.69 40.82Q279.14 39.57 277.29 39.57Q275.43 39.57 273.61 40.82Q271.78 42.06 270.18 44.05Q268.58 46.03 267.40 48.30Q266.22 50.58 265.58 52.56L264.55 57.17Q264.36 58.06 264.04 59.92Q263.72 61.78 263.43 63.92Q263.14 66.06 262.92 67.86Q262.70 69.65 262.70 70.35L256.62 70.35Q256.62 69.58 256.84 67.82Q257.06 66.06 257.38 63.86Q257.70 61.65 258.09 59.54Q258.47 57.42 258.79 55.95L259.88 50.96Q260.07 50.13 260.39 48.75Q260.71 47.38 260.97 45.94Q261.22 44.50 261.22 43.34Q261.22 42.06 260.68 40.82Q260.14 39.57 258.28 39.57Q256.23 39.57 254.28 41.04Q252.33 42.51 250.63 44.82Q248.94 47.12 247.75 49.58Q246.57 52.05 246.18 53.97L242.73 70.35L236.78 70.35L242.15 44.62Q242.34 43.73 242.44 42.90Q242.54 42.06 242.54 41.74Q242.54 39.82 241.19 39.28Q239.85 38.74 238.06 38.74L237.54 38.74L238.12 36.05L249.96 36.05L248.23 44.11L248.87 44.11Q251.50 39.89 254.22 37.68Q256.94 35.47 260.52 35.47Q264.30 35.47 265.83 37.62Q267.37 39.76 267.37 42.58Q267.37 42.96 267.34 43.34Q267.30 43.73 267.24 44.11L267.88 44.11Q270.44 39.89 273.19 37.68Q275.94 35.47 279.53 35.47Q283.30 35.47 284.84 37.62Q286.38 39.76 286.38 42.58Q286.38 44.18 285.96 46.06Q285.54 47.95 285.22 49.62L283.56 57.17Q283.18 58.96 282.95 60.69Q282.73 62.42 282.73 63.89Q282.73 66.96 284.97 66.96Q286.82 66.96 289.06 65.49L290.22 67.34Q288.68 68.62 286.79 69.81Q284.90 70.99 282.41 70.99ZM306.54 70.99Q303.08 70.99 300.26 69.52Q297.45 68.05 295.75 65.14Q294.06 62.22 294.06 57.74Q294.06 54.22 295.27 50.32Q296.49 46.42 298.92 43.02Q301.35 39.63 304.90 37.52Q308.46 35.41 313.13 35.41Q317.16 35.41 319.40 37.36Q321.64 39.31 321.64 42.77Q321.64 46.16 319.24 49.07Q316.84 51.98 312.65 53.78Q308.46 55.57 303.08 55.57L300.84 55.57Q300.78 56.27 300.74 56.94Q300.71 57.62 300.71 58.26Q300.71 62.42 302.50 64.69Q304.30 66.96 307.75 66.96Q310.82 66.96 313.22 65.49Q315.62 64.02 316.97 62.35Q317.61 62.80 317.61 63.95Q317.61 65.36 316.42 66.99Q315.24 68.62 312.81 69.81Q310.38 70.99 306.54 70.99M301.42 52.62L302.06 52.62Q305.77 52.62 308.71 51.38Q311.66 50.13 313.35 47.92Q315.05 45.71 315.05 42.77Q315.05 38.48 311.34 38.48Q309.48 38.48 307.91 39.73Q306.34 40.98 305.06 43.06Q303.78 45.14 302.86 47.63Q301.93 50.13 301.42 52.62ZM321.51 70.35L322.02 67.66L322.86 67.66Q325.03 67.66 326.76 66.86Q328.49 66.06 329.13 63.06L335.78 31.70Q335.91 31.25 335.98 30.77Q336.04 30.29 336.04 29.90Q336.04 28.18 334.60 27.76Q333.16 27.34 331.43 27.34L330.60 27.34L331.18 24.66L349.10 24.66Q357.74 24.66 362.50 29.10Q367.27 33.55 367.27 42.06Q367.27 47.76 365.61 52.88Q363.94 58 360.68 61.94Q357.42 65.87 352.65 68.11Q347.88 70.35 341.67 70.35L321.51 70.35M334.70 67.09L340.26 67.09Q346.54 67.09 351.05 63.79Q355.56 60.50 357.93 54.70Q360.30 48.91 360.30 41.36Q360.30 34.38 357 31.12Q353.70 27.86 348.14 27.86L343.08 27.86L334.70 67.09ZM383.59 29.65Q381.99 29.65 381 28.78Q380.01 27.92 380.01 26.13Q380.01 24.14 381.06 22.90Q382.12 21.65 383.85 21.65Q385.38 21.65 386.41 22.51Q387.43 23.38 387.43 25.17Q387.43 27.66 386.22 28.66Q385 29.65 383.59 29.65M379.18 70.99Q376.62 70.99 375.24 69.20Q373.86 67.41 373.86 64.91Q373.86 63.57 374.12 61.71Q374.38 59.86 374.70 58Q375.02 56.14 375.27 54.86L377.77 43.09Q377.96 42.13 377.96 41.42Q377.96 39.70 376.90 39.22Q375.85 38.74 374.06 38.74L373.22 38.74L373.80 36.05L385.26 36.05L380.90 56.59Q380.78 57.30 380.52 58.64Q380.26 59.98 380.10 61.39Q379.94 62.80 379.94 63.70Q379.94 66.96 382.06 66.96Q383.08 66.96 384.26 66.48Q385.45 66 386.66 65.30L387.82 67.15Q386.41 68.43 383.98 69.71Q381.54 70.99 379.18 70.99ZM383.46 85.71Q382.50 85.71 381.45 85.55Q380.39 85.39 379.75 85.20L380.33 82.26Q380.84 82.38 381.70 82.54Q382.57 82.70 383.27 82.70Q386.41 82.70 388.17 80.02Q389.93 77.33 391.34 70.93L398.06 39.70L392.23 39.70L392.62 37.39L398.76 36.05L399.08 34.58Q400.49 28.11 403.56 24.91Q406.63 21.71 411.75 21.71Q415.85 21.71 417.45 22.86Q419.05 24.02 419.05 25.49Q419.05 27.15 417.93 28.14Q416.81 29.14 414.57 29.14Q414.57 28.24 414.31 27.18Q414.06 26.13 413.32 25.39Q412.58 24.66 411.24 24.66Q408.87 24.66 407.62 26.80Q406.38 28.94 405.22 33.94L404.78 36.05L417.77 36.05L417.77 36.05L417.83 36.05L418.28 33.81Q419.05 30.16 420.62 27.28Q422.18 24.40 424.68 22.74Q427.18 21.07 430.70 21.07Q434.79 21.07 436.87 22.38Q438.95 23.70 438.95 25.81Q438.95 27.92 437.58 28.94Q436.20 29.97 433.64 29.97Q433.64 27.54 433 25.78Q432.36 24.02 430.38 24.02Q428.01 24.02 426.63 26.61Q425.26 29.20 424.42 33.23L423.85 36.05L430.95 36.05L430.25 39.70L423.08 39.70L416.42 70.86Q415.21 76.56 413.29 79.79Q411.37 83.02 408.68 84.37Q405.99 85.71 402.54 85.71Q401.58 85.71 400.52 85.55Q399.46 85.39 398.82 85.20L399.40 82.26Q399.91 82.38 400.78 82.54Q401.64 82.70 402.34 82.70Q405.48 82.70 407.24 80.02Q409 77.33 410.41 70.93L417.13 39.70L404.01 39.70L397.35 70.86Q396.14 76.56 394.22 79.79Q392.30 83.02 389.61 84.37Q386.92 85.71 383.46 85.71Z"></path></svg>